/* XPM */
static char *result[] = {
/* columns rows colors chars-per-pixel */
"64 64 16 1 ",
"  c black",
". c #373737",
"X c gray36",
"o c #800000",
"O c #D50000",
"+ c #E14D4D",
"@ c gray60",
"# c #EA8282",
"$ c #F0A7A7",
"% c #99D9EA",
"& c gray88",
"* c #ECECEC",
"= c #FBFBFB",
"- c gray99",
"; c #FDFDFD",
": c white",
/* pixels */
"%%%%%%%%%%%%%%%%%%%%%%%%%%%%%%%%%%%%%%%%%%%%%%%%%%%%%%%%%%%%%%%%",
"%%%%%%%%%%%%%%%%%%%%%%%%%%%%%%%%%%%%%%%%%%%%%%%%%%%%%%%%%%%%%%%%",
"%%%%%%%%%%%%%%%%%%%%%%%%%%%%%%%%%%%%%%%%%%%%%%%%%%%%%%%%%%%%%%%%",
"%%%%%%%%%%%%%%%%%%%%%%%%%%%%%%%%%%%%%%%%%%%%%%%%%%%%%%%%%%%%%%%%",
"%%%%%%%%%%%%%%%%%%%%%%%%%%%%%%%%%%%%%%%%%%%%%%%%%%%%%%%%%%%%%%%%",
"%%%%%%%%%%%%%%%%%%%%%%%%%%%%%%%%%%%%%%%%%%%%%%%%%%%%%%%%%%%%%%%%",
"%%%%%%%%%%%%%%%%%%%%%%%                    %%%%%%%%%%%%%%%%%%%%%",
"%%%%%%%%%%%%%%%%%%%%%%%                    %%%%%%%%%%%%%%%%%%%%%",
"%%%%%%%%%%%%%%%%%%%%%%%                    %%%%%%%%%%%%%%%%%%%%%",
"%%%%%%%%%%%%%%%%%%     $$$########+++++++++     %%%%%%%%%%%%%%%%",
"%%%%%%%%%%%%%%%%%%     $$$########+++++++++     %%%%%%%%%%%%%%%%",
"%%%%%%%%%%%%%%%   $$$########++++++++OOOOOOOOOOO   %%%%%%%%%%%%%",
"%%%%%%%%%%%%%%%   $$$########++++++++OOOOOOOOOOO   %%%%%%%%%%%%%",
"%%%%%%%%%%%%%%%   $$$########++++++++OOOOOOOOOOO   %%%%%%%%%%%%%",
"%%%%%%%%%%%%   $$$#####+++++++++OOOOOOOOOOOOOOOOOOO   %%%%%%%%%%",
"%%%%%%%%%%%%   $$$#####+++++++++OOOOOOOOOOOOOOOOOOO   %%%%%%%%%%",
"%%%%%%%%%%%%   $$$#####+++++++++OOOOOOOOOOOOOOOOOOO   %%%%%%%%%%",
"%%%%%%%%%%  $$$######+++++OOOOOOOOOOOOOOOOOOOOOOOOOOOO  %%%%%%%%",
"%%%%%%%%%%  $$$######+++++OOOOOOOOOOOOOOOOOOOOOOOOOOOO  %%%%%%%%",
"%%%%%%%%%%  ######+++++OOOOOOOOOOOOOOOOOOOOOOOOOOOOOOO  %%%%%%%%",
"%%%%%%%%%%  ######+++++OOOOOOOOOOOOOOOOOOOOOOOOOOOOOOO  %%%%%%%%",
"%%%%%%%%%%  ######+++++OOOOOOOOOOOOOOOOOOOOOOOOOOOOOOO  %%%%%%%%",
"%%%%%%%   $$###++++++OOOOOOOO        OOOOOOOOOOOOOOOOOOO   %%%%%",
"%%%%%%%   $$###++++++OOOOOOOO        OOOOOOOOOOOOOOOOOOO   %%%%%",
"%%%%%%%   $$###++++++OOOOOOOO        OOOOOOOOOOOOOOOOOOO   %%%%%",
"%%%%%%%   $$###+++OOOOOOOO   &&&&&&&&   OOOOOOOOOOOOOOoo   %%%%%",
"%%%%%%%   $$###+++OOOOOOOO   &&&&&&&&   OOOOOOOOOOOOOOoo   %%%%%",
"%%%%%%%   $$###+++OOOOO   &&&::::::::&&&   OOOOOOOOooooo   %%%%%",
"%%%%%%%   $$###+++OOOOO   &&&::::::::&&&   OOOOOOOOooooo   %%%%%",
"%%%%%%%   $$###+++OOOOO   &&&::::::::&&&   OOOOOOOOooooo   %%%%%",
"%%%%%%%                   &&&::::::::&&&                   %%%%%",
"%%%%%%%                   &&&::::::::&&&                   %%%%%",
"%%%%%%%                   &&&::::::::&&&                   %%%%%",
"%%%%%%%   ;;---********   &&&::::::::&&&   *****@@@@@@XX   %%%%%",
"%%%%%%%   ;;---********   &&&::::::::&&&   *****@@@@@@XX   %%%%%",
"%%%%%%%   ;;---********   &&&::::::::&&&   *****@@@@@@XX   %%%%%",
"%%%%%%%   ==**************   &&&&&&&&   ********@@@XXXXX   %%%%%",
"%%%%%%%   ==**************   &&&&&&&&   ********@@@XXXXX   %%%%%",
"%%%%%%%   *******************        ********@@@@@@XXX..   %%%%%",
"%%%%%%%   *******************        ********@@@@@@XXX..   %%%%%",
"%%%%%%%   *******************        ********@@@@@@XXX..   %%%%%",
"%%%%%%%%%%  *******************************@@@@@XXXXXX  %%%%%%%%",
"%%%%%%%%%%  *******************************@@@@@XXXXXX  %%%%%%%%",
"%%%%%%%%%%  *******************************@@@@@XXXXXX  %%%%%%%%",
"%%%%%%%%%%  ****************************@@@@@XXXXXX...  %%%%%%%%",
"%%%%%%%%%%  ****************************@@@@@XXXXXX...  %%%%%%%%",
"%%%%%%%%%%%%   *******************@@@@@@@@@XXXXX...   %%%%%%%%%%",
"%%%%%%%%%%%%   *******************@@@@@@@@@XXXXX...   %%%%%%%%%%",
"%%%%%%%%%%%%   *******************@@@@@@@@@XXXXX...   %%%%%%%%%%",
"%%%%%%%%%%%%%%%   ***********@@@@@@@@XXXXXXXX...   %%%%%%%%%%%%%",
"%%%%%%%%%%%%%%%   ***********@@@@@@@@XXXXXXXX...   %%%%%%%%%%%%%",
"%%%%%%%%%%%%%%%   ***********@@@@@@@@XXXXXXXX...   %%%%%%%%%%%%%",
"%%%%%%%%%%%%%%%%%%     @@@@@@@@@XXXXXXXX...     %%%%%%%%%%%%%%%%",
"%%%%%%%%%%%%%%%%%%     @@@@@@@@@XXXXXXXX...     %%%%%%%%%%%%%%%%",
"%%%%%%%%%%%%%%%%%%%%%%%                    %%%%%%%%%%%%%%%%%%%%%",
"%%%%%%%%%%%%%%%%%%%%%%%                    %%%%%%%%%%%%%%%%%%%%%",
"%%%%%%%%%%%%%%%%%%%%%%%                    %%%%%%%%%%%%%%%%%%%%%",
"%%%%%%%%%%%%%%%%%%%%%%%%%%%%%%%%%%%%%%%%%%%%%%%%%%%%%%%%%%%%%%%%",
"%%%%%%%%%%%%%%%%%%%%%%%%%%%%%%%%%%%%%%%%%%%%%%%%%%%%%%%%%%%%%%%%",
"%%%%%%%%%%%%%%%%%%%%%%%%%%%%%%%%%%%%%%%%%%%%%%%%%%%%%%%%%%%%%%%%",
"%%%%%%%%%%%%%%%%%%%%%%%%%%%%%%%%%%%%%%%%%%%%%%%%%%%%%%%%%%%%%%%%",
"%%%%%%%%%%%%%%%%%%%%%%%%%%%%%%%%%%%%%%%%%%%%%%%%%%%%%%%%%%%%%%%%",
"%%%%%%%%%%%%%%%%%%%%%%%%%%%%%%%%%%%%%%%%%%%%%%%%%%%%%%%%%%%%%%%%",
"%%%%%%%%%%%%%%%%%%%%%%%%%%%%%%%%%%%%%%%%%%%%%%%%%%%%%%%%%%%%%%%%"
};
