/* XPM */
static char *result[] = {
/* columns rows colors chars-per-pixel */
"64 64 11 1 ",
"  c black",
". c #795548",
"X c #B71C1C",
"o c #D50000",
"O c #FF5722",
"+ c #FF9800",
"@ c #FFC107",
"# c #FFEB3B",
"$ c gray62",
"% c #99D9EA",
"& c white",
/* pixels */
"%%%%%%%%%%%%%%%%%%%%%%%%%%%%%%%%%%%%%%%%%%%%%%%%%%%%%%%%%%%%%%%%",
"%%%%%%%%%%%%%%%%%%%%%%%%%%%%%%%%%%%%%%%%%%%%%%%%%%%%%%%%%%%%%%%%",
"%%%%%%%%%%%%%%%%%%%%%%%%%%%%%%%%%%%%%%%%%%%%%%%%%%%%%%%%%%%%%%%%",
"%%%%%%%%%%%%%%%%%%%%%%%%%%%%%%%%%%%%%%%%%%%%%%%%%%%%%%%%%%%%%%%%",
"%%%%%%%%%%%%%%%%%%%%%%%%%%%%%%%%%%%%%%%%%%%%%%%%%%%%%%%%%%%%%%%%",
"%%%%%%%%%%%%%%%%%% %%%%%%%%%%%%%%%%%%%%%%%%%%%%%%%%%%%%%%%%%%%%%",
"%%%%%%%%%%%%%%%%%   %%%%%%%%%%%%%%%%%%%%%%%%%%%%%%%%%%%%%%%%%%%%",
"%%%%%%%%%%%%%%%%%   %%%%%%%%%%%%%%%%%%%%%%%%%%%%%%%%%%%%%%%%%%%%",
"%%%%%%%%%%%%%%%%% $  %%%%%%%%%%%%%%%%%%%%%%%%   %%%%%%%%%%%%%%%%",
"%%%%%%%%%%%%%%%% $$  %%%%%%%%%%%%%%%%%%%%%   $$ %%%%%%%%%%%%%%%%",
"%%%%%%%%%%%%%%%% $$$  %%%%%%%%%%%%%%%%%%  $$$$  %%%%%%%%%%%%%%%%",
"%%%%%%%%%%%%%%%% $$$+ %%%%%%%%%%%%%%%%O+@$$$$  %%%%%%%%%%%%%%%%%",
"%%%%%%%%%%%%%%%% $$$@ %%%%%%%%%%%%%%%O@@@$$$  %%%%%%%%%%%%%%%%%%",
"%%%%%%%%%%%%%%%%% $@@+ %%%%%%%%%%%%O+@@@@+$   %%%%%%%%%%%%%%%%%%",
"%%%%%%%%%%%%%%%%%O@@@+ %%%%%%%%%%%.@@@@@@@   %%%%%%%%%%%%%%%%%%%",
"%%%%%%%%%%%%%%%%%O@@@+ %%%%%%%%%..@@@@@@@+  %%%%%%%%%%%%%%%%%%%%",
"%%%%%%%%%%%%%%%%%%+@++ OO+++++OO+@@@@@@++ %%%%%%%%%%%%%%%%%%%%%%",
"%%%%%%%%%%%%%%%%%%O++OO#######@@@@@@@@+  %%%%%%%%%%%%%%%%%%%%%%%",
"%%%%%%%%%%%%%%%%%%%.+##########@@@@@++ %%%%%%%%%%%%OO%%%%%%%%%%%",
"%%%%%%%%%%%%%%%%%%+@@##########@@@@@+.%%%%%%%%%%%O##@.%%%%%%%%%%",
"%%%%%%%%%%%%%%%%%.@@@@#######@+  +@@+.%%%%%%%%%%O#@@@.%%%%%%%%%%",
"%%%%%%%%%%%%%%%%%O+  @@@@@@@@@ &  @@++ %%%%%%%%O#@@@+.%%%%%%%%%%",
"%%%%%%%%%%%%%%%%O@ & @@@@@@@@@  $ @@++ %%%%%%O##@@++++.%%%%%%%%%",
"%%%%%%%%%%%%%%%%.@  $@@@@@@@@@+  +@@++.%%%%%O##@++++++.%%%%%%%%%",
"%%%%%%%%%%%%%%%.@@O +@@.+@@@@@@@@@oo+++ %%++@@@+++++++.%%%%%%%%%",
"%%%%%%%%%%%%%%% o@@@@+@@@@@@+@@@@oooX++ ..@@++++++++++.%%%%%%%%%",
"%%%%%%%%%%%%%%% o@@@@@+XXXX+@@@@@oooX+..#O.+++++++++++ %%%%%%%%%",
"%%%%%%%%%%%%%%.% X@@@@@XXoo@@@@@@ooXX.#O@#.+++++++++. %%%%%%%%%%",
"%%%%%%%%%%%%%.#..X@@@@@XooX@@@@@@@XX+.@@@O.+++++++. %%%%%%%%%%%%",
"%%%%%%%%%%%%.#@@+.@@@@@@XX@@@@@@@@@+.@@@@@ +++++. %%%%%%%%%%%%%%",
"%%%%%%%%%%%%%O@@++.@@@@@@@@@@@@@@@@.@@+++ +++++.%%%%%%%%%%%%%%%%",
"%%%%%%%%%%%%%.++++O+@@@@@@@@@@@@@@@@@++++ ++++ %%%%%%%%%%%%%%%%%",
"%%%%%%%%%%%%%% +++O@@@@@@@@@@@@@@@@@++++ .+++++ %%%%%%%%%%%%%%%%",
"%%%%%%%%%%%%%%% +++@@@@@@@@@@@@@@@@++++ %%.+++++ %%%%%%%%%%%%%%%",
"%%%%%%%%%%%%%%%% .@@@@@@@@@@@@@@@@@++++ %%%.+++++ %%%%%%%%%%%%%%",
"%%%%%%%%%%%%%%%%%O@@@@@@@@@@@@@@@@@++O.%%..++++. %%%%%%%%%%%%%%%",
"%%%%%%%%%%%%%%%%.@@@@@@@@@@@@@@@@@@+O+.  #+++. %%%%%%%%%%%%%%%%%",
"%%%%%%%%%%%%%%%%O@@@@@@@@@@@@@@@@@@+++.#+++  %%%%%%%%%%%%%%%%%%%",
"%%%%%%%%%%%%%%%.@@@@@@@@@@@@@@@@@@+++. +++.%%%%%%%%%%%%%%%%%%%%%",
"%%%%%%%%%%%%%%...@@@@@@@@@@@@@@@@++++ +++ %%%%%%%%%%%%%%%%%%%%%%",
"%%%%%%%%%%%%%.##O.@@@@@@@@@@@@@@@++++ ++++ %%%%%%%%%%%%%%%%%%%%%",
"%%%%%%%%%%%%%OO@O@.@@@@@@@@@@@@@+++++ # OO+ %%%%%%%%%%%%%%%%%%%%",
"%%%%%%%%%%%%%.++++O@@@@@@@@@@@+++++++  ...O+ %%%%%%%%%%%%%%%%%%%",
"%%%%%%%%%%%%%%O++++.++@@@@@@+++++++++....   %%%%%%%%%%%%%%%%%%%%",
"%%%%%%%%%%%%%%%.+++.++++++++++++++++..   %%%%%%%%%%%%%%%%%%%%%%%",
"%%%%%%%%%%%%%%% +++ ++++++++++++++++  %%%%%%%%%%%%%%%%%%%%%%%%%%",
"%%%%%%%%%%%%%%%%.  ++++++++++++++++O %%%%%%%%%%%%%%%%%%%%%%%%%%%",
"%%%%%%%%%%%%%%%%%%%    .O++++++++++ %%%%%%%%%%%%%%%%%%%%%%%%%%%%",
"%%%%%%%%%%%%%%%%%%%%%%%%  ++++++.  %%%%%%%%%%%%%%%%%%%%%%%%%%%%%",
"%%%%%%%%%%%%%%%%%%%%%%%%%%  OO   %%%%%%%%%%%%%%%%%%%%%%%%%%%%%%%",
"%%%%%%%%%%%%%%%%%%%%%%%%%%.OOOO %%%%%%%%%%%%%%%%%%%%%%%%%%%%%%%%",
"%%%%%%%%%%%%%%%%%%%%%%%%%%.O+OO %%%%%%%%%%%%%%%%%%%%%%%%%%%%%%%%",
"%%%%%%%%%%%%%%%%%%%%%%%%%%.@+@ %%%%%%%%%%%%%%%%%%%%%%%%%%%%%%%%%",
"%%%%%%%%%%%%%%%%%%%%%%%%%%%   %%%%%%%%%%%%%%%%%%%%%%%%%%%%%%%%%%",
"%%%%%%%%%%%%%%%%%%%%%%%%%%%%%%%%%%%%%%%%%%%%%%%%%%%%%%%%%%%%%%%%",
"%%%%%%%%%%%%%%%%%%%%%%%%%%%%%%%%%%%%%%%%%%%%%%%%%%%%%%%%%%%%%%%%",
"%%%%%%%%%%%%%%%%%%%%%%%%%%%%%%%%%%%%%%%%%%%%%%%%%%%%%%%%%%%%%%%%",
"%%%%%%%%%%%%%%%%%%%%%%%%%%%%%%%%%%%%%%%%%%%%%%%%%%%%%%%%%%%%%%%%",
"%%%%%%%%%%%%%%%%%%%%%%%%%%%%%%%%%%%%%%%%%%%%%%%%%%%%%%%%%%%%%%%%",
"%%%%%%%%%%%%%%%%%%%%%%%%%%%%%%%%%%%%%%%%%%%%%%%%%%%%%%%%%%%%%%%%",
"%%%%%%%%%%%%%%%%%%%%%%%%%%%%%%%%%%%%%%%%%%%%%%%%%%%%%%%%%%%%%%%%",
"%%%%%%%%%%%%%%%%%%%%%%%%%%%%%%%%%%%%%%%%%%%%%%%%%%%%%%%%%%%%%%%%",
"%%%%%%%%%%%%%%%%%%%%%%%%%%%%%%%%%%%%%%%%%%%%%%%%%%%%%%%%%%%%%%%%",
"%%%%%%%%%%%%%%%%%%%%%%%%%%%%%%%%%%%%%%%%%%%%%%%%%%%%%%%%%%%%%%%%"
};
